<svg width="512" height="512" xmlns="http://www.w3.org/2000/svg" xml:space="preserve" version="1.1">

 <g>
  <title>Layer 1</title>
  <g id="svg_1">
   <path id="svg_2" fill="#ffffff" d="m488.992,102.555c-42.188,-21.672 -96.219,-40.547 -145.484,-61.734c-1.609,-0.703 -2.734,-1.188 -3.359,-1.109c-22.75,-8.75 -47.375,-13.469 -73.016,-13.453c-13.047,0 -25.375,0.688 -37.063,2.016c-27.563,3.141 -51.578,10.016 -72.219,20.375c-43.921,18.123 -89.921,34.936 -126.843,53.905c-25.922,13.312 -28.313,38.187 -26.563,48.765c4.688,28.438 24.125,103 28.125,117.844c3.406,12.672 17.453,22.172 34.406,24.422c9.625,51.516 34.172,96.906 68.703,129.875l0,0c17.641,16.813 37.906,30.391 60.094,39.766c22.172,9.375 46.281,14.531 71.359,14.516c28.563,0.016 55.859,-6.688 80.5,-18.672c36.984,-18 68.016,-47.797 89.797,-84.875c14.859,-25.281 25.438,-54.016 30.672,-84.844c9.75,-4.406 17.016,-11.563 19.328,-20.188c4,-14.844 23.438,-89.406 28.125,-117.844c1.751,-10.578 -0.64,-35.453 -26.562,-48.765zm-102.25,283.562c-15.547,17.875 -33.938,32.203 -54.156,42.031c-20.219,9.844 -42.234,15.219 -65.453,15.219c-20.375,0 -39.844,-4.156 -57.984,-11.813c-18.125,-7.656 -34.922,-18.844 -49.75,-32.969l0.016,0c-4.25,-4.031 -8.297,-8.344 -12.188,-12.859c0.094,0.094 0.203,0.203 0.313,0.297c87.156,-44.844 163.188,-130.953 157.688,-228.172c-2.688,-47.172 -23.656,-77.516 -48.672,-97.031c3.469,-0.109 6.969,-0.188 10.578,-0.188c23.609,0.016 45.938,4.688 66.219,13.359c8.125,3.469 15.906,7.594 23.328,12.313c6.313,17.219 14.438,40.453 24.5,71.781c-14.188,90.688 18.406,127.297 51.266,134.578c-7.689,36.157 -23.845,68.329 -45.705,93.454z" class="st0"/>
   <path id="svg_3" fill="#ffffff" d="m270.852,334.086c-25.453,0 -46.094,16.781 -46.094,37.5s20.641,37.5 46.094,37.5s46.094,-16.781 46.094,-37.5s-20.641,-37.5 -46.094,-37.5z" class="st0"/>
  </g>
 </g>
</svg>